<?xml version="1.0" encoding="UTF-8"?>
<svg width="308px" height="346px" viewBox="0 0 308 346" version="1.1" xmlns="http://www.w3.org/2000/svg" xmlns:xlink="http://www.w3.org/1999/xlink">
    <title>Group</title>
    <desc>Created with Sketch.</desc>
    <g id="Page-1" stroke="none" stroke-width="1" fill="none" fill-rule="evenodd">
        <g id="Group" fill="#FFFFFF">
            <path d="M49,345.575715 L49,308.47732 L60.5719375,308.47732 C64.0548557,308.47732 66.8324412,309.431951 68.9047775,311.341242 C70.9771137,313.250533 72.0132663,315.813894 72.0132663,319.031403 C72.0132663,321.188194 71.4821293,323.097456 70.4198393,324.759246 C69.3575492,326.421036 67.9034527,327.627584 66.0575061,328.378925 C64.2115595,329.130267 61.5645815,329.505932 58.1164926,329.505932 L54.2504728,329.505932 L54.2504728,345.575715 L49,345.575715 Z M59.6576761,313.197488 L54.2504728,313.197488 L54.2504728,324.785764 L59.9711372,324.785764 C62.0957172,324.785764 63.7326642,324.277511 64.8820272,323.260991 C66.0313901,322.24447 66.606063,320.790426 66.606063,318.898814 C66.606063,315.097911 64.2899572,313.197488 59.6576761,313.197488 Z M104.667948,308 C110.310275,308 115.007791,309.812031 118.760635,313.436148 C122.513479,317.060265 124.389873,321.603601 124.389873,327.066294 C124.389873,332.528988 122.496065,337.050226 118.708391,340.630147 C114.920718,344.210067 110.144838,346 104.380609,346 C98.8775982,346 94.293276,344.210067 90.6275047,340.630147 C86.9617334,337.050226 85.1288752,332.564344 85.1288752,327.172366 C85.1288752,321.638958 86.9747941,317.060265 90.6666873,313.436148 C94.3585805,309.812031 99.0256208,308 104.667948,308 Z M104.876922,313.038381 C100.69742,313.038381 97.2624439,314.364258 94.5718897,317.01605 C91.8813355,319.667843 90.5360785,323.053248 90.5360785,327.172366 C90.5360785,331.167733 91.8856891,334.491264 94.5849506,337.143057 C97.2842121,339.794849 100.662592,341.120726 104.720192,341.120726 C108.795206,341.120726 112.195354,339.768332 114.920737,337.063503 C117.64612,334.358675 119.008792,330.990948 119.008792,326.960223 C119.008792,323.03557 117.64612,319.734138 114.920737,317.055827 C112.195354,314.377516 108.847449,313.038381 104.876922,313.038381 Z M185.308294,308.530356 L190.506523,308.530356 L175.747732,345.734822 L174.624496,345.734822 L162.686854,315.610607 L150.644725,345.734822 L149.52149,345.734822 L134.814941,308.530356 L140.065414,308.530356 L150.12229,334.066992 L160.231409,308.530356 L165.194543,308.530356 L175.355905,334.066992 L185.308294,308.530356 Z M204.77149,308.530356 L225.45992,308.530356 L225.45992,313.250523 L209.995841,313.250523 L209.995841,324.547104 L224.937485,324.547104 L224.937485,329.293789 L209.995841,329.293789 L209.995841,340.802512 L225.956233,340.802512 L225.956233,345.52268 L204.77149,345.52268 L204.77149,308.530356 Z M241.86687,345.575715 L241.86687,308.530356 L251.009484,308.530356 C254.701377,308.530356 257.631338,309.458469 259.799455,311.314724 C261.967571,313.170979 263.051613,315.681305 263.051613,318.845778 C263.051613,321.00257 262.520476,322.867636 261.458186,324.441033 C260.395896,326.01443 258.872142,327.19004 256.886879,327.9679 C258.053656,328.745759 259.194295,329.80646 260.308829,331.150035 C261.423363,332.49361 262.990652,334.835992 265.010745,338.177251 C266.28201,340.281006 267.300748,341.863219 268.06699,342.923936 L270,345.575715 L263.783022,345.575715 L262.189595,343.136078 C262.137351,343.047685 262.032865,342.897419 261.876134,342.685276 L260.857386,341.226797 L259.237837,338.521982 L257.487679,335.631542 C256.407975,334.111181 255.419711,332.900214 254.52286,331.998604 C253.626009,331.096995 252.816242,330.447315 252.093537,330.049546 C251.370831,329.651777 250.156182,329.452896 248.449552,329.452896 L247.091221,329.452896 L247.091221,345.575715 L241.86687,345.575715 Z M248.658526,313.038381 L247.091221,313.038381 L247.091221,324.732729 L249.076474,324.732729 C251.723492,324.732729 253.538936,324.50291 254.52286,324.043266 C255.506784,323.583622 256.273015,322.889746 256.821575,321.961619 C257.370134,321.033492 257.64441,319.97721 257.64441,318.792742 C257.64441,317.625954 257.339659,316.569672 256.730148,315.623866 C256.120638,314.67806 255.262982,314.010702 254.157155,313.621773 C253.051329,313.232843 251.218471,313.038381 248.658526,313.038381 Z" id="POWER"></path>
            <path d="M94.248,143.967338 L94.248,270.11465 C94.248,275.021893 90.1111111,279 85.008,279 C83.1962502,279 81.5062882,278.498579 80.08,277.632176 L80.08,278.034815 C32.3560958,252.877541 0,204.116912 0,148.089172 C0,66.3017807 68.9481485,0 154,0 C239.051851,0 308,66.3017807 308,148.089172 C308,203.110278 276.796125,251.123059 230.477344,276.656072 C228.83188,278.111396 226.635854,279 224.224,279 C219.120889,279 214.984,275.021893 214.984,270.11465 L214.984,144.294144 L164.760799,218.727852 C162.010706,222.861549 156.296538,224.06875 151.997849,221.424211 C147.69916,218.779672 146.443775,213.284826 149.193868,209.151129 L215.208534,111.313549 C217.091128,108.4838 220.362739,107.025459 223.618429,107.235338 C223.818616,107.222884 224.02054,107.216561 224.224,107.216561 C229.327111,107.216561 233.464,111.194667 233.464,116.101911 L233.464,253.66498 C267.429268,229.983963 289.52,191.517334 289.52,148.089172 C289.52,76.1162676 228.845629,17.7707006 154,17.7707006 C79.1543707,17.7707006 18.48,76.1162676 18.48,148.089172 C18.48,192.040221 41.1058919,230.909541 75.768,254.513911 L75.768,116.101911 C75.768,113.505451 76.926142,111.169108 78.7727671,109.544513 C79.2736364,109.013343 79.8499491,108.532313 80.4985702,108.116496 C84.7446153,105.394447 90.481448,106.497775 93.3121447,110.580849 L145.056145,185.217791 C147.886841,189.300865 146.739475,194.817506 142.49343,197.539555 C138.247385,200.261604 132.510552,199.158276 129.679855,195.075202 L94.248,143.967338 Z" id="Combined-Shape"></path>
        </g>
    </g>
</svg>